# xmcd
#
# Track frame offsets:
#	180
#	6034
#	18094
#	31232
#	53870
#	71952
#	88321
#	101053
#	111639
#	121083
#	134649
#	151597
#	170136
#	185640
#	201227
#	217128
#	228755
#	253807
#	265816
#	277630
#
# Disc length: 3772 seconds
#
# Revision: 0
# Processed by: cddbd v1.4PL0 Copyright (c) Steve Scherf et al.
# Submitted via: dBpowerAMP V4.0
#
DISCID=230eba14
DTITLE=Freddy Fender - Live In Las Vegas
DYEAR=2003
DGENRE=Texmex
TTITLE0=Intro: Rancho Grande
TTITLE1=Next Time You See Me
TTITLE2=Tell It Like It Is
TTITLE3=For The Good Times
TTITLE4=Blueberry Hill
TTITLE5=I Just Called To Say I Love You
TTITLE6=Wild Side of Life
TTITLE7=Dinero
TTITLE8=Matilda
TTITLE9=Guacamole
TTITLE10=Hey Baby Que Paso
TTITLE11=Secret Love
TTITLE12=Break Up
TTITLE13=Behind Closed Doors
TTITLE14=Mentiras
TTITLE15=La Mucura - A Mover El Bote
TTITLE16=I Gotta Woman
TTITLE17=Before The Next Teardrop Falls
TTITLE18=Wasted Days and Wasted Nights
TTITLE19=Closing - Rancho Grande
EXTD=
EXTT0=
EXTT1=
EXTT2=
EXTT3=
EXTT4=
EXTT5=
EXTT6=
EXTT7=
EXTT8=
EXTT9=
EXTT10=
EXTT11=
EXTT12=
EXTT13=
EXTT14=
EXTT15=
EXTT16=
EXTT17=
EXTT18=
EXTT19=
PLAYORDER=
